<svg xmlns="http://www.w3.org/2000/svg" width="22.908" height="23.685" viewBox="0 0 22.908 23.685">
	<g id="Log_Out_Icon" data-name="Log Out Icon" transform="translate(-471.422 -255.867)" style="isolation: isolate">
		<path id="Path_35" data-name="Path 35" d="M489.645,261.968c-.035-.752-.062-1.407-.1-2.062-.095-1.768-.957-2.681-2.719-2.7q-5.689-.055-11.378,0a2.4,2.4,0,0,0-2.645,2.735q-.026,7.735,0,15.47a2.447,2.447,0,0,0,2.673,2.732q5.625.053,11.251,0a2.577,2.577,0,0,0,2.8-2.778c.03-.657.06-1.314.091-1.967.241.012.375-.014.4.024,1.288,2.329-.241,5.458-2.858,5.542-4,.128-8.011.09-12.015.012a3.2,3.2,0,0,1-3.185-3.35q-.079-7.99,0-15.981a3.19,3.19,0,0,1,3.471-3.276c3.878-.011,7.757.023,11.634-.011,2.832-.025,3.907,3.075,3.1,5.453C490.155,261.864,490.019,261.866,489.645,261.968Z" transform="translate(0 0)" stroke-width="1" />
		<path id="Path_36" data-name="Path 36" d="M517.592,293.167l-.513-1.252.308-.283,2.38,2.21a7.228,7.228,0,0,1-2.485,2.281l-.3-.275.794-1.206c-.42-.033-.771-.083-1.122-.084-2.856-.007-5.712.016-8.567-.033-.35-.006-.694-.386-1.04-.593.347-.255.69-.726,1.042-.732C511.192,293.143,514.3,293.167,517.592,293.167Z" transform="translate(-26.136 -26.243)" stroke-width="1" />
	</g>
</svg>
